<?xml version="1.0" standalone="no"?>
<!DOCTYPE svg PUBLIC "-//W3C//DTD SVG 20010904//EN"
 "http://www.w3.org/TR/2001/REC-SVG-20010904/DTD/svg10.dtd">
<svg version="1.0" xmlns="http://www.w3.org/2000/svg"
 width="2133.000000pt" height="2133.000000pt" viewBox="0 0 2133.000000 2133.000000"
 preserveAspectRatio="xMidYMid meet">

<g transform="translate(0.000000,2133.000000) scale(0.100000,-0.100000)"
fill="#000000" stroke="none">
<path d="M12215 16004 c-52 -7 -139 -25 -170 -36 -197 -69 -370 -209 -496
-403 -77 -117 -114 -192 -162 -330 -19 -55 -47 -134 -62 -175 -14 -41 -44
-127 -65 -190 -86 -257 -162 -476 -170 -495 -9 -19 -94 -267 -166 -485 -19
-58 -39 -113 -45 -122 -5 -10 -9 -25 -9 -33 0 -8 -4 -23 -10 -33 -5 -9 -26
-66 -46 -127 -20 -60 -61 -180 -91 -265 -30 -85 -61 -177 -70 -205 -8 -27 -19
-59 -24 -70 -4 -11 -19 -54 -33 -95 -14 -41 -54 -160 -91 -265 -36 -104 -88
-255 -115 -335 -27 -80 -79 -230 -115 -335 -36 -104 -84 -242 -105 -305 -36
-105 -98 -286 -247 -715 -30 -88 -63 -185 -74 -215 -10 -30 -61 -181 -114
-335 -259 -750 -258 -746 -251 -799 20 -172 224 -247 349 -128 44 41 26 -3
221 562 30 85 70 205 91 265 20 61 40 119 45 130 5 11 11 29 13 40 3 11 19 58
36 105 55 155 161 463 211 610 27 80 78 231 115 335 36 105 88 255 115 335 27
80 79 231 115 335 37 105 79 228 95 275 16 47 68 198 115 335 48 138 99 288
115 335 16 47 58 171 95 275 36 105 84 242 105 305 21 63 73 214 115 335 42
121 89 258 105 305 16 47 63 184 105 305 42 121 92 267 111 325 19 58 60 157
92 220 48 97 69 127 137 195 86 87 154 128 242 144 165 32 319 -83 368 -274
18 -66 20 -244 4 -312 -18 -80 -182 -578 -209 -638 -5 -11 -25 -67 -44 -125
-19 -58 -60 -177 -91 -265 -31 -88 -65 -185 -75 -215 -18 -53 -121 -348 -181
-520 -99 -282 -111 -324 -107 -385 6 -97 61 -160 162 -187 62 -16 138 7 188
59 38 39 60 91 148 353 21 63 64 187 95 275 31 88 69 198 85 245 16 47 54 157
85 245 31 88 65 185 75 215 10 30 51 147 90 260 193 555 210 621 210 839 0
183 -25 303 -92 435 -127 253 -344 400 -618 419 -41 2 -88 3 -105 1z"/>
<path d="M7210 14244 c-203 -38 -376 -114 -555 -247 -39 -29 -149 -110 -245
-181 -96 -72 -224 -166 -285 -211 -163 -120 -338 -250 -440 -325 -82 -60 -376
-278 -675 -498 -63 -47 -146 -109 -185 -137 -38 -29 -178 -132 -310 -229 -318
-233 -384 -287 -468 -376 -129 -138 -220 -288 -270 -445 -19 -60 -22 -92 -22
-235 0 -157 1 -169 29 -243 82 -223 274 -399 528 -484 205 -69 287 -66 364 11
85 84 85 208 0 292 -27 27 -57 46 -86 54 -221 59 -309 107 -371 198 -58 87
-71 162 -45 259 42 158 158 310 336 441 41 30 116 85 165 122 86 64 236 174
485 359 63 46 147 108 185 136 39 28 158 117 265 196 107 79 295 219 418 309
992 732 968 715 1052 755 105 51 149 60 285 59 111 0 139 -4 188 -23 91 -36
145 -70 214 -135 123 -114 190 -245 200 -389 14 -215 -60 -346 -302 -528 -55
-41 -368 -279 -695 -529 -327 -250 -669 -510 -760 -579 -91 -69 -245 -186
-342 -261 -97 -74 -234 -179 -305 -232 -70 -54 -229 -175 -353 -270 -124 -94
-290 -221 -370 -282 -195 -148 -311 -237 -395 -300 -84 -63 -198 -178 -260
-261 -138 -184 -209 -427 -185 -629 27 -225 98 -387 257 -583 131 -163 166
-191 793 -638 261 -186 498 -355 525 -375 52 -39 368 -266 557 -399 58 -42
213 -153 345 -247 131 -94 263 -184 293 -200 255 -139 515 -151 769 -37 250
112 555 455 649 728 37 107 44 165 40 300 -6 174 -39 267 -148 414 -51 69
-100 112 -377 333 -175 140 -412 328 -528 418 -607 473 -925 738 -903 754 12
9 305 239 358 281 36 28 182 143 325 255 143 112 341 267 440 345 99 78 259
203 355 278 486 381 475 372 499 421 45 96 15 204 -73 264 -42 28 -56 32 -115
32 -48 0 -75 -5 -99 -20 -30 -18 -175 -130 -332 -255 -36 -28 -149 -118 -253
-198 -282 -221 -552 -433 -647 -508 -47 -37 -269 -211 -494 -388 -225 -176
-419 -334 -431 -352 -36 -47 -49 -117 -35 -182 34 -166 207 -325 1175 -1082
749 -586 811 -639 851 -734 17 -40 19 -178 3 -218 -51 -127 -129 -243 -244
-359 -81 -82 -154 -132 -242 -164 -120 -43 -265 -15 -398 79 -27 19 -367 262
-755 540 -388 278 -739 529 -780 558 -188 131 -562 403 -622 451 -241 191
-371 434 -337 630 32 184 117 289 420 520 96 72 235 178 309 235 116 89 273
208 783 597 54 41 183 139 285 218 103 78 255 193 337 256 83 63 218 165 300
228 83 63 260 199 395 302 878 668 867 659 957 776 55 73 126 217 153 310 28
98 37 282 20 386 -35 220 -135 411 -299 574 -144 143 -286 223 -491 277 -54
14 -329 26 -380 17z"/>
<path d="M13965 14240 c-224 -50 -423 -181 -607 -401 -248 -297 -337 -598
-256 -869 36 -121 144 -282 244 -363 211 -173 830 -663 1038 -821 101 -77 413
-331 510 -415 54 -47 110 -95 124 -107 14 -11 22 -26 18 -32 -3 -6 -106 -89
-228 -184 -121 -95 -289 -227 -373 -293 -84 -66 -197 -155 -251 -197 -54 -43
-171 -134 -259 -203 -426 -335 -656 -516 -732 -574 -101 -77 -129 -109 -144
-164 -26 -98 16 -201 101 -245 37 -19 57 -23 111 -20 74 4 83 9 289 173 63 50
187 147 275 216 88 69 392 307 675 530 283 222 526 413 541 424 124 91 435
344 459 373 17 20 34 58 41 88 41 184 -101 333 -970 1019 -91 72 -177 139
-192 150 -85 62 -668 524 -743 589 -114 97 -160 206 -137 319 22 112 66 192
179 329 90 110 172 181 260 225 75 37 80 38 182 38 100 0 108 -2 175 -36 39
-19 149 -92 245 -160 348 -250 1517 -1087 1605 -1150 50 -35 100 -71 112 -79
382 -261 539 -424 609 -631 45 -134 26 -287 -51 -409 -67 -106 -150 -177 -655
-561 -200 -152 -742 -565 -1035 -789 -148 -113 -326 -249 -395 -301 -69 -53
-260 -198 -425 -324 -165 -126 -363 -277 -440 -335 -77 -59 -194 -148 -260
-199 -66 -50 -172 -131 -235 -178 -147 -112 -187 -149 -254 -237 -157 -207
-222 -437 -191 -677 47 -352 255 -644 575 -805 287 -144 642 -137 942 18 112
58 199 120 808 573 85 64 189 140 230 170 41 30 136 100 210 155 74 55 187
138 250 185 63 47 165 122 227 167 61 46 255 189 430 318 175 129 349 257 387
285 325 235 485 447 561 738 19 73 19 271 1 347 -69 285 -298 497 -632 585
-133 36 -207 28 -271 -28 -124 -109 -78 -316 79 -357 24 -6 70 -18 103 -27
133 -36 248 -120 293 -215 30 -66 31 -184 1 -264 -60 -161 -167 -280 -404
-454 -72 -52 -209 -153 -305 -224 -96 -71 -218 -161 -270 -199 -124 -92 -240
-178 -430 -318 -85 -64 -229 -170 -320 -237 -91 -67 -223 -165 -295 -218 -71
-53 -188 -139 -260 -192 -71 -53 -208 -154 -302 -224 -203 -150 -247 -178
-339 -216 -131 -54 -239 -67 -361 -42 -335 69 -569 428 -474 731 40 128 107
206 304 355 56 43 185 141 287 219 102 77 241 184 310 236 69 52 249 190 400
305 151 115 331 253 400 305 247 188 978 745 1105 842 72 55 238 181 369 281
355 269 424 325 498 404 190 202 278 412 278 660 0 264 -116 523 -334 746
-115 118 -167 160 -472 377 -150 107 -419 300 -599 429 -180 129 -379 271
-441 315 -61 44 -269 193 -460 330 -465 334 -516 365 -679 411 -60 17 -303 27
-360 14z"/>
<path d="M11717 12140 c-43 -13 -95 -57 -116 -98 -10 -20 -42 -107 -70 -192
-29 -85 -56 -164 -61 -175 -9 -21 -76 -214 -160 -465 -27 -80 -79 -230 -115
-335 -37 -104 -79 -228 -95 -275 -16 -47 -47 -139 -70 -205 -24 -66 -89 -255
-145 -420 -57 -165 -147 -426 -200 -580 -53 -154 -105 -305 -115 -335 -16 -48
-71 -209 -256 -745 -25 -71 -58 -168 -74 -215 -16 -47 -59 -170 -95 -275 -36
-104 -88 -255 -115 -335 -27 -80 -79 -230 -115 -335 -37 -104 -77 -224 -91
-265 -14 -41 -29 -84 -33 -95 -5 -11 -16 -42 -24 -70 -9 -27 -29 -88 -46 -135
-16 -47 -53 -152 -81 -235 -28 -82 -55 -158 -60 -167 -6 -10 -10 -23 -10 -30
0 -18 -74 -161 -110 -213 -93 -136 -218 -215 -340 -217 -108 -2 -175 27 -249
107 -75 82 -111 188 -111 329 0 142 10 177 205 741 42 121 94 272 115 335 48
141 160 464 202 580 16 47 32 97 35 113 3 15 9 30 14 33 5 3 9 14 9 25 0 10 4
27 10 37 5 9 37 98 70 197 34 99 72 212 86 252 13 39 24 89 24 111 0 111 -95
202 -212 202 -63 0 -129 -30 -162 -74 -21 -27 -91 -217 -172 -466 -14 -41 -29
-84 -34 -95 -5 -11 -29 -81 -54 -155 -39 -117 -163 -477 -179 -520 -3 -8 -37
-107 -75 -220 -39 -113 -79 -232 -91 -265 -63 -174 -172 -510 -188 -580 -14
-61 -18 -120 -18 -250 0 -200 17 -283 90 -430 124 -253 357 -411 637 -432 149
-11 335 45 482 146 124 86 256 241 334 392 61 120 68 137 142 354 199 579 301
876 371 1080 43 127 103 302 134 390 31 88 74 212 95 275 21 63 68 201 105
305 36 105 101 294 145 420 43 127 117 343 165 480 47 138 96 282 109 320 13
39 70 203 126 365 121 352 277 804 404 1175 51 149 119 344 150 435 32 91 68
199 82 240 14 41 29 84 33 95 56 131 54 225 -7 296 -58 68 -142 94 -225 69z"/>
</g>
</svg>
